<svg id="visual" viewBox="0 0 900 600" width="900" height="600" xmlns="http://www.w3.org/2000/svg" xmlns:xlink="http://www.w3.org/1999/xlink" version="1.1"><rect x="0" y="0" width="900" height="600" fill="#0c0c0c"></rect><defs><linearGradient id="grad1_0" x1="33.3%" y1="0%" x2="100%" y2="100%"><stop offset="20%" stop-color="#0c0c0c" stop-opacity="1"></stop><stop offset="80%" stop-color="#0c0c0c" stop-opacity="1"></stop></linearGradient></defs><defs><linearGradient id="grad2_0" x1="0%" y1="0%" x2="66.7%" y2="100%"><stop offset="20%" stop-color="#0c0c0c" stop-opacity="1"></stop><stop offset="80%" stop-color="#0c0c0c" stop-opacity="1"></stop></linearGradient></defs><g transform="translate(900, 0)"><path d="M0 379C-42.1 357.6 -84.1 336.2 -135.5 327.1C-186.8 317.9 -247.5 320.9 -296.3 296.3C-345.1 271.7 -381.9 219.5 -399.7 165.6C-417.5 111.6 -416.3 55.8 -415 0L0 0Z" fill="#FBAE3C"></path></g><g transform="translate(0, 600)"><path d="M0 -375C63.2 -399.5 126.3 -424 165.6 -399.7C204.8 -375.5 220.1 -302.6 257.4 -257.4C294.7 -212.2 353.9 -194.8 377.9 -156.5C401.8 -118.2 390.4 -59.1 379 0L0 0Z" fill="#FBAE3C"></path></g></svg>