<svg width="120" height="120" viewBox="0 0 120 120" fill="none" xmlns="http://www.w3.org/2000/svg">
<path fill-rule="evenodd" clip-rule="evenodd" d="M91.4062 0C108.75 0 120 11.25 120 28.5938V91.4062C120 108.75 108.75 120 91.4062 120H28.5938C11.25 120 0 108.75 0 91.4062V28.5938C0 11.25 11.25 0 28.5938 0H91.4062Z" fill="url(#paint0_linear_407_26)"/>
<mask id="mask0_407_26" style="mask-type:alpha" maskUnits="userSpaceOnUse" x="0" y="0" width="120" height="120">
<path fill-rule="evenodd" clip-rule="evenodd" d="M91.4062 0C108.75 0 120 11.25 120 28.5938V91.4062C120 108.75 108.75 120 91.4062 120H28.5938C11.25 120 0 108.75 0 91.4062V28.5938C0 11.25 11.25 0 28.5938 0H91.4062Z" fill="white"/>
</mask>
<g mask="url(#mask0_407_26)">
<path fill-rule="evenodd" clip-rule="evenodd" d="M36.2109 175.547C82.9394 175.547 120.82 137.666 120.82 90.9375C120.82 44.209 82.9394 6.32812 36.2109 6.32812C-10.5175 6.32812 -48.3984 44.209 -48.3984 90.9375C-48.3984 137.666 -10.5175 175.547 36.2109 175.547Z" fill="url(#paint1_radial_407_26)"/>
<g filter="url(#filter0_d_407_26)">
<path d="M78.9844 20.3906H41.25C29.4708 20.3906 19.9219 29.9395 19.9219 41.7187V78.9844C19.9219 90.7636 29.4708 100.313 41.25 100.313H78.9844C90.7636 100.313 100.312 90.7636 100.312 78.9844V41.7187C100.312 29.9395 90.7636 20.3906 78.9844 20.3906Z" stroke="white" stroke-width="8.20312"/>
</g>
<g filter="url(#filter1_d_407_26)">
<path fill-rule="evenodd" clip-rule="evenodd" d="M60.2344 79.9219C70.8486 79.9219 79.4531 71.3173 79.4531 60.7031C79.4531 50.0889 70.8486 41.4844 60.2344 41.4844C49.6202 41.4844 41.0156 50.0889 41.0156 60.7031C41.0156 71.3173 49.6202 79.9219 60.2344 79.9219Z" stroke="white" stroke-width="8.20312"/>
</g>
<g filter="url(#filter2_d_407_26)">
<path fill-rule="evenodd" clip-rule="evenodd" d="M83.7891 42.4219C86.8957 42.4219 89.4141 39.9035 89.4141 36.7969C89.4141 33.6903 86.8957 31.1719 83.7891 31.1719C80.6825 31.1719 78.1641 33.6903 78.1641 36.7969C78.1641 39.9035 80.6825 42.4219 83.7891 42.4219Z" fill="white"/>
</g>
</g>
<defs>
<filter id="filter0_d_407_26" x="13.8203" y="14.2891" width="92.5938" height="92.125" filterUnits="userSpaceOnUse" color-interpolation-filters="sRGB">
<feFlood flood-opacity="0" result="BackgroundImageFix"/>
<feColorMatrix in="SourceAlpha" type="matrix" values="0 0 0 0 0 0 0 0 0 0 0 0 0 0 0 0 0 0 127 0" result="hardAlpha"/>
<feOffset/>
<feGaussianBlur stdDeviation="1"/>
<feColorMatrix type="matrix" values="0 0 0 0 0 0 0 0 0 0 0 0 0 0 0 0 0 0 0.130633 0"/>
<feBlend mode="normal" in2="BackgroundImageFix" result="effect1_dropShadow_407_26"/>
<feBlend mode="normal" in="SourceGraphic" in2="effect1_dropShadow_407_26" result="shape"/>
</filter>
<filter id="filter1_d_407_26" x="34.9141" y="35.3828" width="50.6406" height="50.6406" filterUnits="userSpaceOnUse" color-interpolation-filters="sRGB">
<feFlood flood-opacity="0" result="BackgroundImageFix"/>
<feColorMatrix in="SourceAlpha" type="matrix" values="0 0 0 0 0 0 0 0 0 0 0 0 0 0 0 0 0 0 127 0" result="hardAlpha"/>
<feOffset/>
<feGaussianBlur stdDeviation="1"/>
<feColorMatrix type="matrix" values="0 0 0 0 0 0 0 0 0 0 0 0 0 0 0 0 0 0 0.130633 0"/>
<feBlend mode="normal" in2="BackgroundImageFix" result="effect1_dropShadow_407_26"/>
<feBlend mode="normal" in="SourceGraphic" in2="effect1_dropShadow_407_26" result="shape"/>
</filter>
<filter id="filter2_d_407_26" x="76.1641" y="29.1719" width="15.25" height="15.25" filterUnits="userSpaceOnUse" color-interpolation-filters="sRGB">
<feFlood flood-opacity="0" result="BackgroundImageFix"/>
<feColorMatrix in="SourceAlpha" type="matrix" values="0 0 0 0 0 0 0 0 0 0 0 0 0 0 0 0 0 0 127 0" result="hardAlpha"/>
<feOffset/>
<feGaussianBlur stdDeviation="1"/>
<feColorMatrix type="matrix" values="0 0 0 0 0 0 0 0 0 0 0 0 0 0 0 0 0 0 0.130633 0"/>
<feBlend mode="normal" in2="BackgroundImageFix" result="effect1_dropShadow_407_26"/>
<feBlend mode="normal" in="SourceGraphic" in2="effect1_dropShadow_407_26" result="shape"/>
</filter>
<linearGradient id="paint0_linear_407_26" x1="-2.34256" y1="10.5957" x2="30.8989" y2="153.756" gradientUnits="userSpaceOnUse">
<stop stop-color="#4E60D3"/>
<stop offset="0.148736" stop-color="#913BAF"/>
<stop offset="0.315836" stop-color="#D52D88"/>
<stop offset="0.493765" stop-color="#D72E85"/>
<stop offset="0.81651" stop-color="#E6366D"/>
<stop offset="1" stop-color="#F26D4F"/>
</linearGradient>
<radialGradient id="paint1_radial_407_26" cx="0" cy="0" r="1" gradientUnits="userSpaceOnUse" gradientTransform="translate(40.8174 120.393) rotate(15.5573) scale(109.154 102.79)">
<stop stop-color="#FED980"/>
<stop offset="0.372276" stop-color="#FCAE49"/>
<stop offset="0.555546" stop-color="#F06745"/>
<stop offset="1" stop-color="#E83D5C" stop-opacity="0.01"/>
</radialGradient>
</defs>
</svg>
